<?xml version="1.0" standalone="no"?>
<!DOCTYPE svg PUBLIC "-//W3C//DTD SVG 20010904//EN"
 "http://www.w3.org/TR/2001/REC-SVG-20010904/DTD/svg10.dtd">
<svg version="1.0" xmlns="http://www.w3.org/2000/svg"
 width="520.000000pt" height="520.000000pt" viewBox="0 0 520.000000 520.000000"
 preserveAspectRatio="xMidYMid meet">

<g transform="translate(0.000000,520.000000) scale(0.100000,-0.100000)"
fill="#000000" stroke="none">
<path d="M0 2600 l0 -2600 2600 0 2600 0 0 2600 0 2600 -2600 0 -2600 0 0
-2600z m2134 -216 c73 -153 226 -269 391 -294 161 -25 331 35 446 158 56 60
119 166 119 201 0 12 42 13 273 7 762 -18 1299 -67 1474 -132 43 -16 43 -16
37 -57 -15 -105 -59 -283 -100 -406 -363 -1079 -1475 -1731 -2595 -1521 -821
154 -1504 753 -1765 1548 -48 143 -101 389 -91 415 26 69 846 148 1608 155
l167 2 36 -76z"/>
<path d="M1835 2213 c-471 -12 -1019 -48 -1194 -80 -32 -5 -33 -7 -27 -42 18
-112 126 -376 217 -530 372 -629 1040 -1011 1769 -1011 809 0 1546 477 1872
1213 54 122 123 339 115 360 -11 30 -742 83 -1195 88 l-133 1 -43 -58 c-87
-119 -204 -210 -338 -264 -101 -40 -190 -53 -322 -48 -126 5 -240 38 -343 99
-72 43 -190 154 -239 224 -20 30 -38 54 -38 53 -1 -1 -46 -3 -101 -5z"/>
</g>
</svg>
